<?xml version="1.0" encoding="UTF-8"?>
<svg font-size="13" version="1.1" viewBox="0 0 6400 3600" xmlns="http://www.w3.org/2000/svg" xmlns:xlink="http://www.w3.org/1999/xlink">
 <metadata>
  <rdf:RDF xmlns:rdf="http://www.w3.org/1999/02/22-rdf-syntax-ns#">
   <cc:Work xmlns:cc="http://creativecommons.org/ns#" xmlns:dc="http://purl.org/dc/elements/1.1/">
    <dc:format>image/svg+xml</dc:format>
    <dc:type rdf:resource="http://purl.org/dc/dcmitype/StillImage"/>
	<dc:title>Fenster (Fenstersystem)</dc:title>
    <dc:title>Fenêtre (système de fenêtrage)</dc:title>
    <dc:date>2013-10-05</dc:date>
    <dc:creator>
     <cc:Agent>
      <dc:title>Shmuel Csaba Otto Traian Xerxes</dc:title>
     </cc:Agent>
    </dc:creator>
    <dc:rights>
     <cc:Agent>
      <dc:title>GFDL 1.3+ or CC-BY-SA 3.0+</dc:title>
     </cc:Agent>
    </dc:rights>
    <dc:rights>
     <cc:Agent>
      <dc:title>Shmuel Csaba Otto Traian Xerxes</dc:title>
     </cc:Agent>
    </dc:rights>
    <cc:license rdf:resource="http://creativecommons.org/licenses/by-sa/3.0/ or http://www.gnu.org/copyleft/lesser.html"/>
    <dc:language>fr-FR</dc:language>
    <dc:subject>
     <rdf:Bag>
      <rdf:li>système fenêtrage fenêtre bordure titre barre menu contextuel horizontal vertical défilement état gestionnaire wayland compositeur libwayland-client</rdf:li>
     </rdf:Bag>
    </dc:subject>
    <dc:coverage>Éléments d'une fenêtre (système de fenêtrage)</dc:coverage>
    <dc:description>Éleéents d'une fenêtre (système de fenêtrage)</dc:description>
    <dc:contributor>
     <cc:Agent>
      <dc:title>Julien henry</dc:title>
     </cc:Agent>
    </dc:contributor>
    <dc:source>http://upload.wikimedia.org/wikipedia/commons/1/14/Window_%28windowing_system%29.svg</dc:source>
   </cc:Work>
  </rdf:RDF>
 </metadata>
 <pattern id="i" xlink:href="#d" patternTransform="matrix(59.84 1.676 -1.277 45.58 6935 1452)"/>
 <pattern id="h" xlink:href="#d" patternTransform="matrix(48.79 0 0 50.08 6950 2238)"/>
 <pattern id="d" width="10" height="10" patternTransform="scale(10)" patternUnits="userSpaceOnUse">
  <circle cx="2.57" cy=".81" r=".15"/>
  <circle cx="3.05" cy="2.33" r=".15"/>
  <circle cx="4.42" cy="2.42" r=".15"/>
  <circle cx="1.84" cy="3.03" r=".15"/>
  <circle cx="6.08" cy="1.36" r=".15"/>
  <circle cx="5.82" cy="4.41" r=".15"/>
  <circle cx="4.3" cy="4.05" r=".15"/>
  <circle cx="5.54" cy="3.04" r=".15"/>
  <circle cx="4.79" cy="5.53" r=".15"/>
  <circle cx="2.67" cy="5.18" r=".15"/>
  <circle cx="7.96" cy="1.45" r=".15"/>
  <circle cx="7.05" cy="5.05" r=".15"/>
  <circle cx="4.34" cy=".9" r=".15"/>
  <circle cx="7.13" cy=".34" r=".15"/>
  <circle cx="9.55" cy="1.05" r=".15"/>
  <circle cx="7.01" cy="2.69" r=".15"/>
  <circle cx="8.91" cy="2.69" r=".15"/>
  <circle cx="9.31" cy="4.41" r=".15"/>
  <circle cx="7.82" cy="3.87" r=".15"/>
  <circle cx="8.27" cy="5.95" r=".15"/>
  <circle cx="7.97" cy="7.43" r=".15"/>
  <circle cx="9.34" cy="8.07" r=".15"/>
  <circle cx="8.21" cy="9.31" r=".15"/>
  <circle cx="9.68" cy="9.47" r=".15"/>
  <circle cx="9.69" cy="6.19" r=".15"/>
  <circle cx="3.38" cy="6.3" r=".15"/>
  <circle cx="2.87" cy="8.2" r=".15"/>
  <circle cx="4.59" cy="8.72" r=".15"/>
  <circle cx="3.18" cy="9.67" r=".15"/>
  <circle cx="5.73" cy="7.32" r=".15"/>
  <circle cx="6.71" cy="6.51" r=".15"/>
  <circle cx="5.73" cy="9.67" r=".15"/>
  <circle cx="6.54" cy="8.37" r=".15"/>
  <circle cx="4.37" cy="7.15" r=".15"/>
  <circle cx=".62" cy="7.25" r=".15"/>
  <circle cx=".83" cy="5.68" r=".15"/>
  <circle cx="1.26" cy="8.52" r=".15"/>
  <circle cx="1.99" cy="6.88" r=".15"/>
  <circle cx=".37" cy="3.18" r=".15"/>
  <circle cx="1.17" cy="1.66" r=".15"/>
  <circle cx="1.15" cy=".09" r=".15"/>
  <circle cx="1.15" cy="10.09" r=".15"/>
  <circle cx="1.3" cy="4.45" r=".15"/>
  <circle cx="3.05" cy="3.76" r=".15"/>
 </pattern>
 <pattern id="f" xlink:href="#e" patternTransform="matrix(2.63 2.63 -14.5 14.5 530.4 834.3)"/>
 <pattern id="e" width="9" height="1" patternTransform="scale(10)" patternUnits="userSpaceOnUse">
  <path d="m0-.5h1v2h-1z" fill="#0197ff"/>
 </pattern>
 <filter id="g">
  <feGaussianBlur stdDeviation=".91"/>
 </filter>
 <marker id="c" overflow="visible" orient="auto">
  <path d="m.98 0c0 .56-.44 1-1 1s-1-.44-1-1 .44-1 1-1 1 .44 1 1z" fill="#333" fill-rule="evenodd" stroke="#333" stroke-width=".2pt"/>
 </marker>
 <marker id="b" overflow="visible" orient="auto">
  <path d="m-1.93-1.21 3.28 1.2-3.28 1.21c.51-.72.51-1.68 0-2.41z" fill="#333" fill-rule="evenodd" stroke="#333" stroke-linejoin="round" stroke-width=".189"/>
 </marker>
 <path d="m10 10h4780v3580h-4780z" fill="#ff0" stroke="#000" stroke-linecap="round" stroke-width="20"/>
 <path d="m55 55h4690v3490h-4690z" fill="#fff" stroke-width="10"/>
 <path transform="matrix(10 0 0 10 0 -6924)" d="m7.5 747.9h456v269h-456z" fill="url(#f)" filter="url(#g)" stroke="#0197fd" stroke-linecap="round" stroke-width="3"/>
 <path d="m55 55h4690v3490h-4690z" fill="none" stroke="#000" stroke-linecap="round" stroke-width="10"/>
 <path d="m55 55h4690v290h-4690z" fill="#fdd99b" stroke="#000" stroke-linecap="round" stroke-width="10"/>
 <path d="m55 345h4690v190h-4690z" fill="#d9bb7a" stroke="#000" stroke-linecap="round" stroke-width="10"/>
 <path d="m55 3356h4690v190h-4690z" fill="#d9bb7a" stroke="#000" stroke-linecap="round" stroke-width="10"/>
 <path d="m55 3266h4600v90h-4600z" fill="#e6e6e6" stroke="#000" stroke-linecap="round" stroke-width="10"/>
 <path d="m4655 3266v-2720h90v2720z" fill="#e6e6e6" stroke="#000" stroke-linecap="round" stroke-width="10"/>
 <path d="m55 3266h4600v90h-4600z" fill="url(#h)" stroke="#000" stroke-linecap="round" stroke-width="10"/>
 <path d="m4655 3266h90v90h-90z" fill="none" stroke="#000" stroke-linecap="round" stroke-width="10"/>
 <path d="m4493 155h90v90h-90z" fill="#ffc022" stroke="#000" stroke-linecap="round" stroke-width="10"/>
 <path d="m4293 155h90v90h-90z" fill="#ffc022" stroke="#000" stroke-linecap="round" stroke-width="10"/>
 <path d="m4093 155h90v90h-90z" fill="#ffc022" stroke="#000" stroke-linecap="round" stroke-width="10"/>
 <path d="m3893 155h90v90h-90z" fill="#ffc022" stroke="#000" stroke-linecap="round" stroke-width="10"/>
 <path d="m4655 3266v-2720h90v2720z" fill="url(#i)" stroke="#000" stroke-linecap="round" stroke-width="10"/>
 <rect x="4665" y="1189" width="70" height="300" rx="40" fill="#565248" stroke="#000" stroke-linecap="round" stroke-width="10"/>
 <rect transform="rotate(-90)" x="-3346" y="1360" width="70" height="1990" rx="40" fill="#565248" stroke="#000" stroke-linecap="round" stroke-width="10"/>
 <path d="m4314 175h48.8v48.8h-48.8z" fill="none" stroke="#000" stroke-linecap="round" stroke-width="10"/>
 <path d="m4112 226h51.4" fill="none" stroke="#000" stroke-width="10"/>
 <text x="4538.2" y="242.9" font-family="Liberation Mono" font-size="130" stroke-width="10" text-anchor="middle"><tspan x="4538.2" y="242.9" stroke-width="10">×</tspan></text>
 <text x="3938.2" y="249.6" font-family="Liberation Mono" font-size="130" stroke-width="10" text-anchor="middle"><tspan x="3938.2" y="249.6" stroke-width="10">°</tspan></text>
 <switch>
  <g transform="scale(10)" style="stroke-linecap:round;stroke:#000" systemLanguage="ar">
   <rect x="45" y="35.63" width="25" height="17" rx="5" style="fill:#816647"/>
   <path d="m45 53.5h69.37v102h-69.37z" style="fill:#816647"/>
   <path d="m251.4 161.3h69.37v102h-69.37z" style="fill:#b3defd"/>
  </g>
  <g transform="scale(10)" style="stroke-linecap:round;stroke:#000" systemLanguage="en">
   <rect x="57.98" y="35.63" width="34.72" height="29.12" rx="5" style="fill:#816647"/>
   <path d="m57.98 53.5h69.37v102h-69.37z" style="fill:#816647"/>
   <path d="m251.4 161.3h69.37v102h-69.37z" style="fill:#b3defd"/>
  </g>
  <g transform="scale(10)" style="stroke-linecap:round;stroke:#000" systemLanguage="ru">
   <rect x="57.98" y="35.63" width="50" height="29.12" rx="5" style="fill:#816647"/>
   <path d="m57.98 53.5h85v102h-85z" style="fill:#816647"/>
   <path d="m251.4 161.3h85v102h-85z" style="fill:#b3defd"/>
  </g>
  <g systemLanguage="de">
   <rect x="580" y="356.3" width="790" height="291.2" rx="50" style="fill:#816647;stroke-linecap:round;stroke-width:10;stroke:#000"/>
   <path d="m580 535h1150v1020h-1150z" style="fill:#816647;stroke-linecap:round;stroke-width:10;stroke:#000"/>
   <path d="m2100 1613h1150v1020h-1150z" style="fill:#b3defd;stroke-linecap:round;stroke-width:10;stroke:#000"/>
  </g>
  <g transform="scale(10)" style="stroke-linecap:round;stroke:#000" systemLanguage="fr">
   <rect x="79.99" y="35.63" width="61.31" height="29.12" rx="8.83" ry="5" style="fill:#816647"/>
   <path d="m79.99 53.5h89.78v102h-89.78z" style="fill:#816647"/>
   <path d="m251.4 161.3h90.66v102h-90.66z" style="fill:#b3defd"/>
  </g>
  <g transform="scale(10)" style="stroke-linecap:round;stroke:#000" systemLanguage="tr">
   <rect x="57.98" y="35.63" width="34.72" height="29.12" rx="5" style="fill:#816647"/>
   <path d="m57.98 53.5h69.37v102h-69.37z" style="fill:#816647"/>
   <path d="m251.4 161.3h69.37v102h-69.37z" style="fill:#b3defd"/>
  </g>
 </switch>
 <path d="m4860 270s-620 130-1224-52.8" fill="none" marker-end="url(#b)" marker-start="url(#c)" stroke="#333" stroke-width="30"/>
 <path d="m4862 1966s-950-560-1778-35.6" fill="none" marker-end="url(#b)" marker-start="url(#c)" stroke="#333" stroke-width="30"/>
 <path d="m5381 2510s-330-260-645 17.8" fill="none" marker-end="url(#b)" marker-start="url(#c)" stroke="#333" stroke-width="30"/>
 <path d="m5261 3100s-500-220-857.5 193.3" fill="none" marker-end="url(#b)" marker-start="url(#c)" stroke="#333" stroke-width="30"/>
 <path d="m4877 3457s-180-150-438 25" fill="none" marker-end="url(#b)" marker-start="url(#c)" stroke="#333" stroke-width="30"/>
 <path d="m4840 490s-200 130-382.6-30" fill="none" marker-end="url(#b)" marker-start="url(#c)" stroke="#333" stroke-width="30"/>
 <path d="m4842 810s-1880 600-3694 108.2" fill="none" marker-end="url(#b)" marker-start="url(#c)" stroke="#333" stroke-width="30"/>
 <path d="m4859 70s-140 200-312.1-8.8" fill="none" marker-end="url(#b)" marker-start="url(#c)" stroke="#333" stroke-width="30"/>
 <switch stroke-width="10">
   <g systemLanguage="ar">
   <text x="4936.4" y="128.2" font-family="Calibri" font-size="130" font-weight="bold"><tspan x="4936.4" y="128.2">حدود النافذة</tspan></text>
   <text font-family="Calibri" font-size="130" font-weight="bold" text-anchor="end"><tspan x="6000" y="2530">عمودي</tspan> <tspan x="6000" y="2690">شريط تمرير</tspan></text>
   <text font-family="Calibri" font-size="130" font-weight="bold"><tspan x="5300" y="3110">أفقي</tspan> <tspan x="5200" y="3270">شريط تمرير</tspan></text>
   <text x="1027.4" y="486.3" font-family="Calibri" font-size="130" text-anchor="middle">مساعدة عرض تحرير ملف</text>
   <text x="2410" y="263.3" font-family="Calibri" font-size="160" font-weight="bold" text-anchor="middle">عنوان النافذة</text>
   <text x="4930" y="311.2" font-family="Calibri" font-size="130" font-weight="bold"><tspan x="4930" y="311.2">شريط العنوان &amp; المفاتيح</tspan></text>
   <text x="4930" y="529.9" font-family="Calibri" font-size="130" font-weight="bold"><tspan x="4930" y="529.9">كيانات </tspan> <tspan x="4930" y="692.4">شريط القوائم</tspan> <tspan x="4930" y="854.9">قائمة منسدلة</tspan></text>
   <text x="4930" y="3498.5" font-family="Calibri" font-size="130" font-weight="bold">شريط حالة</text>
   <text x="4930" y="2021.1" font-family="Calibri" font-size="130" font-weight="bold">قائمة محتوى</text>
   <text x="689.9" y="685.2" fill="#eee" font-family="Calibri" font-size="130"><tspan x="689.9" y="685.2">تراجع</tspan> <tspan x="689.9" y="847.7">إعادة</tspan> <tspan x="689.9" y="1010.2">قص</tspan> <tspan x="689.9" y="1172.7">نسخ</tspan> <tspan x="689.9" y="1335.2">لصق</tspan> <tspan x="689.9" y="1497.7">حذف</tspan></text>
   <text x="2627.4" y="1762.9" font-family="Calibri" font-size="130"><tspan x="2627.4" y="1762.9">تراجع</tspan> <tspan x="2627.4" y="1925.4">إعادة</tspan> <tspan x="2627.4" y="2087.9">قص</tspan> <tspan x="2627.4" y="2250.4">نسخ</tspan> <tspan x="2627.4" y="2412.9">لصق</tspan> <tspan x="2627.4" y="2575.4">حذف</tspan></text>
   <text x="370.4" y="3492.8" font-family="Calibri" font-size="130"><tspan x="370.4" y="3492.8">الحالة</tspan></text>
   <text x="4890" y="1547.4" fill="#09f" font-family="Calibri" font-size="130" font-weight="bold">محتوى النافذة</text>
  </g>
  <g systemLanguage="en">
   <text x="4936.4" y="128.2" font-family="DejaVu Serif, serif" font-size="130" font-weight="bold"><tspan x="4936.4" y="128.2">Window border</tspan></text>
   <text font-family="DejaVu Serif, serif" font-size="130" font-weight="bold" text-anchor="end"><tspan x="6000" y="2530">Vertical</tspan> <tspan x="6000" y="2690">scroll bar</tspan></text>
   <text font-family="DejaVu Serif, serif" font-size="130" font-weight="bold"><tspan x="5300" y="3110">Horizontal</tspan> <tspan x="5200" y="3270">scroll bar</tspan></text>
   <text x="1027.4" y="486.3" font-family="Liberation Mono" font-size="130" text-anchor="middle">File Edit View Help </text>
   <text x="2410" y="263.3" font-family="DejaVu Serif, serif" font-size="160" font-weight="bold" letter-spacing="20" text-anchor="middle">Window Title </text>
   <text x="4930" y="311.2" font-family="DejaVu Serif, serif" font-size="130" font-weight="bold"><tspan x="4930" y="311.2">Title bar &amp; buttons</tspan></text>
   <text x="4930" y="529.9" font-family="DejaVu Serif, serif" font-size="130" font-weight="bold"><tspan x="4930" y="529.9">Menu bar &amp;</tspan> <tspan x="4930" y="692.4">entries</tspan> <tspan x="4930" y="854.9">Pull down menu</tspan></text>
   <text x="4930" y="3498.5" font-family="DejaVu Serif, serif" font-size="130" font-weight="bold">Status bar </text>
   <text x="4930" y="2021.1" font-family="DejaVu Serif, serif" font-size="130" font-weight="bold">Context menu </text>
   <text x="689.9" y="685.2" fill="#eee" font-family="Liberation Mono" font-size="130"><tspan x="689.9" y="685.2">Undo</tspan> <tspan x="689.9" y="847.7">Redo</tspan> <tspan x="689.9" y="1010.2">Cut</tspan> <tspan x="689.9" y="1172.7">Copy</tspan> <tspan x="689.9" y="1335.2">Paste</tspan> <tspan x="689.9" y="1497.7">Delete</tspan></text>
   <text x="2627.4" y="1762.9" font-family="Liberation Mono" font-size="130"><tspan x="2627.4" y="1762.9">Undo</tspan> <tspan x="2627.4" y="1925.4">Redo</tspan> <tspan x="2627.4" y="2087.9">Cut</tspan> <tspan x="2627.4" y="2250.4">Copy</tspan> <tspan x="2627.4" y="2412.9">Paste</tspan> <tspan x="2627.4" y="2575.4">Delete</tspan></text>
   <text x="370.4" y="3492.8" font-family="Liberation Mono" font-size="130"><tspan x="370.4" y="3492.8">Status</tspan></text>
   <text x="4890" y="1547.4" fill="#09f" font-family="DejaVu Serif, serif" font-size="130" font-weight="bold">Window content </text>
  </g>
  <g systemLanguage="ru">
   <text x="4936.4" y="128.2" font-family="DejaVu Serif, serif" font-size="130" font-weight="bold"><tspan x="4936.4" y="128.2">Рамка окна</tspan></text>
   <text font-family="DejaVu Serif, serif" font-size="130" font-weight="bold" text-anchor="end"><tspan x="6100" y="2640">Вертикальная</tspan> <tspan x="6300" y="2780">полоса прокрутки</tspan></text>
   <text font-family="DejaVu Serif, serif" font-size="130" font-weight="bold" text-anchor="end"><tspan x="6100" y="3220">Горизонтальная</tspan> <tspan x="6300" y="3360">полоса прокрутки</tspan></text>
   <text x="1100" y="486.3" font-family="Liberation Mono" font-size="130" text-anchor="middle"><tspan x="1100" y="486.3">Файл Правка Вид Помощь</tspan></text>
   <text x="2410" y="263.3" font-family="DejaVu Serif, serif" font-size="160" font-weight="bold" letter-spacing="20" text-anchor="middle">Окно </text>
   <text x="4930" y="311.2" font-family="DejaVu Serif, serif" font-size="130" font-weight="bold"><tspan x="4930" y="280">Заголовок окна и</tspan> <tspan x="4930" y="410">кнопки управления</tspan></text>
   <text x="4930" y="529.9" font-family="DejaVu Serif, serif" font-size="130" font-weight="bold"><tspan x="4930" y="529.9">Строка меню</tspan> <tspan x="4930" y="854.9">Подменю</tspan></text>
   <text x="4930" y="3498.5" font-family="DejaVu Serif, serif" font-size="130" font-weight="bold">Строка состояния </text>
   <text x="4930" y="2021.1" font-family="DejaVu Serif, serif" font-size="130" font-weight="bold">Контекстное меню </text>
   <text x="600" y="685.2" fill="#eee" font-family="Liberation Mono" font-size="130"><tspan x="600" y="685.2">Отменить</tspan> <tspan x="600" y="847.7">Повторить</tspan> <tspan x="600" y="1010.2">Вырезать</tspan> <tspan x="600" y="1172.7">Копировать</tspan> <tspan x="600" y="1335.2">Вставить</tspan> <tspan x="600" y="1497.7">Удалить</tspan></text>
   <text x="2557.4" y="1762.9" font-family="Liberation Mono" font-size="130"><tspan x="2557.4" y="1762.9">Отменить</tspan> <tspan x="2557.4" y="1925.4">Повторить</tspan> <tspan x="2557.4" y="2087.9">Вырезать</tspan> <tspan x="2557.4" y="2250.4">Копировать</tspan> <tspan x="2557.4" y="2412.9">Вставить</tspan> <tspan x="2557.4" y="2575.4">Удалить</tspan></text>
   <text x="420.4" y="3492.8" font-family="Liberation Mono" font-size="130"><tspan x="420.4" y="3492.8">Состояние</tspan></text>
   <text x="4890" y="1547.4" fill="#09f" font-family="DejaVu Serif, serif" font-size="130" font-weight="bold">Содержимое окна </text>
  </g>
  <g systemLanguage="de">
   <text x="4936.4004" y="128.2" font-family="DejaVu Serif, serif" font-size="130" font-weight="bold"><tspan x="4936.4004" y="128.2">Fensterahmen</tspan></text>
   <text font-family="DejaVu Serif, serif" font-size="130" font-weight="bold"><tspan x="5410" y="2530">Senkrechte</tspan> <tspan x="5300" y="2690">Bildlaufleiste</tspan></text>
   <text font-family="DejaVu Serif, serif" font-size="130" font-weight="bold"><tspan x="5300" y="3110">Horizontale</tspan> <tspan x="5200" y="3270">Bildlaufleiste</tspan></text>
   <text x="150" y="486.3" font-family="Liberation Mono" font-size="130">Datei Bearbeiten Ansicht Hilfe </text>
   <text x="2410" y="263.3002" font-family="DejaVu Serif, serif" font-size="160" font-weight="bold" letter-spacing="20" text-anchor="middle">Fenstertitel </text>
   <text x="4930" y="311.2" font-family="DejaVu Serif, serif" font-size="130" font-weight="bold"><tspan x="4930" y="311.2">Titelleiste &amp; Schaltfälchen</tspan></text>
   <text x="4930" y="529.9" font-family="DejaVu Serif, serif" font-size="130" font-weight="bold"><tspan x="4930" y="529.9">Menüleiste &amp;</tspan> <tspan x="4930" y="692.4">Einträge</tspan> <tspan x="4930" y="854.9">Dropdown-Menü</tspan></text>
   <text x="4930" y="3498.5" font-family="DejaVu Serif, serif" font-size="130" font-weight="bold">Statusleiste </text>
   <text x="4930" y="2021.1" font-family="DejaVu Serif, serif" font-size="130" font-weight="bold">Kontextmenü </text>
   <text x="689.9" y="685.1999" fill="#eee" font-family="Liberation Mono" font-size="130"><tspan x="689.9" y="685.1999">Rückgänig</tspan> <tspan x="689.9" y="847.6999">Wiederholen</tspan> <tspan x="689.9" y="1010.2">Ausschneiden</tspan> <tspan x="689.9" y="1172.7">Kopieren</tspan> <tspan x="689.9" y="1335.2001">Einfügen</tspan> <tspan x="689.9" y="1497.7001">Löschen</tspan></text>
   <text font-family="Liberation Mono" font-size="130"><tspan x="2200" y="1762.8999">Rückgänig</tspan> <tspan x="2200" y="1925.3999">Wiederholen</tspan> <tspan x="2200" y="2087.8999">Ausschneiden</tspan> <tspan x="2200" y="2250.3999">Kopieren</tspan> <tspan x="2200" y="2412.8999">Einfügen</tspan> <tspan x="2200" y="2575.4001">Löschen</tspan></text>
   <text x="370.4" y="3492.8" font-family="Liberation Mono" font-size="130"><tspan x="370.4" y="3492.8">Status</tspan></text>
   <text x="4890" y="1547.4" fill="#09f" font-family="DejaVu Serif, serif" font-size="130" font-weight="bold">Fensterinhalt </text>
  </g>
  <g systemLanguage="fr">
   <text x="4936.4" y="128.2" font-family="DejaVu Serif, serif" font-size="130" font-weight="bold"><tspan x="4936.4" y="128.2">Bordure de fenêtre</tspan></text>
   <text x="5451.3" y="2501.7" font-family="DejaVu Serif, serif" font-size="130" font-weight="bold"><tspan x="5451.3" y="2501.7">Barre de</tspan> <tspan x="5451.3" y="2664.2">défilement</tspan> <tspan x="5451.3" y="2826.7">vertical</tspan></text>
   <text x="5349.8" y="3022.4" font-family="DejaVu Serif, serif" font-size="130" font-weight="bold"><tspan x="5349.8" y="3022.4">Barre de</tspan> <tspan x="5349.8" y="3184.9">défilement</tspan> <tspan x="5349.8" y="3347.4">horizontal</tspan></text>
   <text x="1227.4" y="486.3" font-family="Liberation Mono" font-size="130" text-anchor="middle"><tspan x="1227.4" y="486.3">Fichier Édition Vue Aide</tspan></text>
   <text x="2404.4" y="259.3" font-family="DejaVu Serif, serif" font-size="130" font-weight="bold" letter-spacing="20" text-anchor="middle"><tspan x="2414.4" y="259.3" font-size="160">Titre de la fenêtre</tspan></text>
   <text x="4933.8" y="311.2" font-family="DejaVu Serif, serif" font-size="130" font-weight="bold"><tspan x="4933.8" y="311.2">Barre de titre &amp; boutons</tspan></text>
   <text x="4929.8" y="529.9" font-family="DejaVu Serif, serif" font-size="130" font-weight="bold"><tspan x="4929.8" y="529.9">Barre de menus &amp; entrées</tspan> <tspan x="4929.8" y="692.4">Menu</tspan> <tspan x="4930" y="854.9">Liste déroulante</tspan></text>
   <text x="4926.7" y="3498.5" font-family="DejaVu Serif, serif" font-size="130" font-weight="bold"><tspan x="4926.7" y="3498.5">Barre d'état</tspan></text>
   <text x="4929.8" y="2021.1" font-family="DejaVu Serif, serif" font-size="130" font-weight="bold"><tspan x="4929.8" y="2021.1">Menu contextuel</tspan></text>
   <text x="909.9" y="685.2" fill="#eee" font-family="Liberation Mono" font-size="130"><tspan x="909.9" y="685.2">Annuler</tspan> <tspan x="909.9" y="847.7">Rétablir</tspan> <tspan x="909.9" y="1010.2">Couper</tspan> <tspan x="909.9" y="1172.7">Copier</tspan> <tspan x="909.9" y="1335.2">Coller</tspan> <tspan x="909.9" y="1497.7">Supprimer</tspan></text>
   <text x="2627.4" y="1762.9" font-family="Liberation Mono" font-size="130"><tspan x="2627.4" y="1762.9">Annuler</tspan> <tspan x="2627.4" y="1925.4">Rétablir</tspan> <tspan x="2627.4" y="2087.9">Couper</tspan> <tspan x="2627.4" y="2250.4">Copier</tspan> <tspan x="2627.4" y="2412.9">Coller</tspan> <tspan x="2627.4" y="2575.4">Supprimer</tspan></text>
   <text x="370.4" y="3492.8" font-family="Liberation Mono" font-size="130" text-anchor="middle"><tspan x="370.4" y="3492.8">État</tspan></text>
   <text x="-10.5" y="-124.9" font-family="Liberation Mono" font-size="120"><tspan x="-10.5" y="-124.9">by Shmuel Csaba Otto Traian; created 2013-10-05; GFDL 1.3+ or CC-BY-SA 3.0+; modified by Julien Henry on 2013-12-30 (translation in french)</tspan></text>
   <text x="4894.5" y="1547.4" fill="#0197fd" font-family="DejaVu Serif, serif" font-size="130" font-weight="bold"><tspan x="4894.5" y="1547.4">Contenu de la fenêtre</tspan></text>
  </g>
  <g systemLanguage="tr">
   <text x="4936.4" y="128.2" font-family="DejaVu Serif, serif" font-size="130" font-weight="bold"><tspan x="4936.4" y="128.2">Pencere kenarı</tspan></text>
   <text font-family="DejaVu Serif, serif" font-size="130" font-weight="bold" text-anchor="end"><tspan x="6000" y="2530">Dikey</tspan> <tspan x="6000" y="2690">kaydırma çubuğu</tspan></text>
   <text font-family="DejaVu Serif, serif" font-size="130" font-weight="bold"><tspan x="5300" y="3110">Yatay</tspan> <tspan x="5200" y="3270">kaydırma çubuğu</tspan></text>
   <text x="1027.4" y="486.3" font-family="Liberation Mono" font-size="130" text-anchor="middle">Dosya Düzenle Görüntüle Yardım</text>
   <text x="2410" y="263.3" font-family="DejaVu Serif, serif" font-size="160" font-weight="bold" letter-spacing="20" text-anchor="middle">Pencere Başlığı </text>
   <text x="4930" y="311.2" font-family="DejaVu Serif, serif" font-size="130" font-weight="bold"><tspan x="4930" y="311.2">Başlık çubuğu &amp; butonlar</tspan></text>
   <text x="4930" y="529.9" font-family="DejaVu Serif, serif" font-size="130" font-weight="bold"><tspan x="4930" y="529.9">Menü çubuğu &amp;</tspan> <tspan x="4930" y="692.4">entries</tspan> <tspan x="4930" y="854.9">Pull down menu</tspan></text>
   <text x="4930" y="3498.5" font-family="DejaVu Serif, serif" font-size="130" font-weight="bold">Durum çubuğu </text>
   <text x="4930" y="2021.1" font-family="DejaVu Serif, serif" font-size="130" font-weight="bold">İçerik menüsü </text>
   <text x="689.9" y="685.2" fill="#eee" font-family="Liberation Mono" font-size="130"><tspan x="689.9" y="685.2">Geri al</tspan> <tspan x="689.9" y="847.7">Yinele</tspan> <tspan x="689.9" y="1010.2">Kes</tspan> <tspan x="689.9" y="1172.7">Kopyala</tspan> <tspan x="689.9" y="1335.2">Yapıştır</tspan> <tspan x="689.9" y="1497.7">Sil</tspan></text>
   <text x="2627.4" y="1762.9" font-family="Liberation Mono" font-size="130"><tspan x="2627.4" y="1762.9">Geri al</tspan> <tspan x="2627.4" y="1925.4">Yinele</tspan> <tspan x="2627.4" y="2087.9">Cut</tspan> <tspan x="2627.4" y="2250.4">Kopyala</tspan> <tspan x="2627.4" y="2412.9">Yapıştır</tspan> <tspan x="2627.4" y="2575.4">Sil</tspan></text>
   <text x="370.4" y="3492.8" font-family="Liberation Mono" font-size="130"><tspan x="370.4" y="3492.8">Durum</tspan></text>
   <text x="4890" y="1547.4" fill="#09f" font-family="DejaVu Serif, serif" font-size="130" font-weight="bold">Pencere içeriği </text>
  </g>

 </switch>
</svg>
